<?xml version="1.0" encoding="UTF-8"?>
<svg id="Layer_2" data-name="Layer 2" xmlns="http://www.w3.org/2000/svg" xmlns:xlink="http://www.w3.org/1999/xlink" viewBox="0 0 8377.69 5908">
  <defs>
    <style>
      .cls-1, .cls-2 {
        fill: none;
      }

      .cls-2 {
        stroke: #92278f;
        stroke-miterlimit: 10;
        stroke-width: 2px;
      }

      .cls-3 {
        fill: url(#New_Pattern_Swatch_2);
      }
    </style>
    <pattern id="New_Pattern_Swatch_2" data-name="New Pattern Swatch 2" x="0" y="0" width="200" height="200" patternTransform="translate(5657.78 1306)" patternUnits="userSpaceOnUse" viewBox="0 0 200 200">
      <g>
        <rect class="cls-1" width="200" height="200"/>
        <path class="cls-2" d="M90.87,175.53l-51.27-20.23c-14.55-5.74-21.7-22.2-15.96-36.75l20.23-51.27c5.74-14.55-1.4-31.01-15.96-36.75l-16.23-6.4c-14.55-5.74-31.01,1.4-36.75,15.96l-20.23,51.27c-5.74,14.55-22.2,21.7-36.75,15.96l-51.27-20.23c-14.55-5.74-31.01,1.4-36.75,15.96l-6.4,16.23c-5.74,14.55,1.4,31.01,15.96,36.75l51.27,20.23c14.55,5.74,21.7,22.2,15.96,36.75l-20.23,51.27c-5.74,14.55,1.4,31.01,15.96,36.75l16.23,6.4c14.55,5.74,31.01-1.4,36.75-15.96l20.23-51.27c5.74-14.55,22.2-21.7,36.75-15.96l51.27,20.23c14.55,5.74,31.01-1.4,36.75-15.96l6.4-16.23c5.74-14.55-1.4-31.01-15.96-36.75Z"/>
        <path class="cls-2" d="M290.87,175.53l-51.27-20.23c-14.55-5.74-21.7-22.2-15.96-36.75l20.23-51.27c5.74-14.55-1.4-31.01-15.96-36.75l-16.23-6.4c-14.55-5.74-31.01,1.4-36.75,15.96l-20.23,51.27c-5.74,14.55-22.2,21.7-36.75,15.96l-51.27-20.23c-14.55-5.74-31.01,1.4-36.75,15.96l-6.4,16.23c-5.74,14.55,1.4,31.01,15.96,36.75l51.27,20.23c14.55,5.74,21.7,22.2,15.96,36.75l-20.23,51.27c-5.74,14.55,1.4,31.01,15.96,36.75l16.23,6.4c14.55,5.74,31.01-1.4,36.75-15.96l20.23-51.27c5.74-14.55,22.2-21.7,36.75-15.96l51.27,20.23c14.55,5.74,31.01-1.4,36.75-15.96l6.4-16.23c5.74-14.55-1.4-31.01-15.96-36.75Z"/>
        <path class="cls-2" d="M90.87-24.47l-51.27-20.23c-14.55-5.74-21.7-22.2-15.96-36.75l20.23-51.27c5.74-14.55-1.4-31.01-15.96-36.75l-16.23-6.4c-14.55-5.74-31.01,1.4-36.75,15.96l-20.23,51.27c-5.74,14.55-22.2,21.7-36.75,15.96l-51.27-20.23c-14.55-5.74-31.01,1.4-36.75,15.96l-6.4,16.23c-5.74,14.55,1.4,31.01,15.96,36.75l51.27,20.23c14.55,5.74,21.7,22.2,15.96,36.75l-20.23,51.27c-5.74,14.55,1.4,31.01,15.96,36.75l16.23,6.4c14.55,5.74,31.01-1.4,36.75-15.96l20.23-51.27C-18.6,25.63-2.15,18.49,12.4,24.23l51.27,20.23c14.55,5.74,31.01-1.4,36.75-15.96l6.4-16.23c5.74-14.55-1.4-31.01-15.96-36.75Z"/>
        <path class="cls-2" d="M290.87-24.47l-51.27-20.23c-14.55-5.74-21.7-22.2-15.96-36.75l20.23-51.27c5.74-14.55-1.4-31.01-15.96-36.75l-16.23-6.4c-14.55-5.74-31.01,1.4-36.75,15.96l-20.23,51.27c-5.74,14.55-22.2,21.7-36.75,15.96l-51.27-20.23c-14.55-5.74-31.01,1.4-36.75,15.96l-6.4,16.23c-5.74,14.55,1.4,31.01,15.96,36.75l51.27,20.23c14.55,5.74,21.7,22.2,15.96,36.75l-20.23,51.27c-5.74,14.55,1.4,31.01,15.96,36.75l16.23,6.4c14.55,5.74,31.01-1.4,36.75-15.96l20.23-51.27c5.74-14.55,22.2-21.7,36.75-15.96l51.27,20.23c14.55,5.74,31.01-1.4,36.75-15.96l6.4-16.23c5.74-14.55-1.4-31.01-15.96-36.75Z"/>
      </g>
    </pattern>
  </defs>
  <g id="Layer_1" data-name="Layer 1">
    <polygon class="cls-3" points="8377.69 5908 8377.69 0 0 0 0 5908 8377.69 5908"/>
  </g>
</svg>